<?xml version="1.0" encoding="UTF-8"?>
<svg xmlns="http://www.w3.org/2000/svg" viewBox="0 0 760 320" width="760" height="320">
  <title>QRES v2 convergence (Spiral-ATCG v2.1.1)</title>
  <desc>Average output Hamming distance vs substrate rounds for 4 policies across 3 probes</desc>
  <style>
    .ax { stroke: #888780; stroke-width: 0.5; }
    .ref { stroke: #aaa; stroke-width: 0.5; stroke-dasharray: 3 3; }
    .lbl { fill: #555; font-family: sans-serif; font-size: 11px; }
    .ttl { fill: #222; font-family: sans-serif; font-size: 12px; font-weight: 500; }
  </style>

  <text class="ttl" x="140" y="22" text-anchor="middle">input probe (320 bits)</text>
  <text class="ttl" x="390" y="22" text-anchor="middle">seed probe (256 bits)</text>
  <text class="ttl" x="640" y="22" text-anchor="middle">nonce probe (128 bits)</text>

  <line class="ax" x1="80"  y1="50" x2="80"  y2="240"/>
  <line class="ax" x1="80"  y1="240" x2="200" y2="240"/>
  <line class="ax" x1="330" y1="50" x2="330" y2="240"/>
  <line class="ax" x1="330" y1="240" x2="450" y2="240"/>
  <line class="ax" x1="580" y1="50" x2="580" y2="240"/>
  <line class="ax" x1="580" y1="240" x2="700" y2="240"/>

  <line class="ref" x1="80"  y1="71.1" x2="200" y2="71.1"/>
  <line class="ref" x1="330" y1="71.1" x2="450" y2="71.1"/>
  <line class="ref" x1="580" y1="71.1" x2="700" y2="71.1"/>

  <text class="lbl" x="76" y="240" text-anchor="end" dominant-baseline="central">40</text>
  <text class="lbl" x="76" y="183.7" text-anchor="end" dominant-baseline="central">80</text>
  <text class="lbl" x="76" y="127.4" text-anchor="end" dominant-baseline="central">120</text>
  <text class="lbl" x="76" y="71.1" text-anchor="end" dominant-baseline="central">160</text>

  <text class="lbl" x="80"  y="255" text-anchor="middle">2</text>
  <text class="lbl" x="92"  y="255" text-anchor="middle">3</text>
  <text class="lbl" x="104" y="255" text-anchor="middle">4</text>
  <text class="lbl" x="128" y="255" text-anchor="middle">6</text>
  <text class="lbl" x="152" y="255" text-anchor="middle">8</text>
  <text class="lbl" x="200" y="255" text-anchor="middle">12</text>
  <text class="lbl" x="330" y="255" text-anchor="middle">2</text>
  <text class="lbl" x="342" y="255" text-anchor="middle">3</text>
  <text class="lbl" x="354" y="255" text-anchor="middle">4</text>
  <text class="lbl" x="378" y="255" text-anchor="middle">6</text>
  <text class="lbl" x="402" y="255" text-anchor="middle">8</text>
  <text class="lbl" x="450" y="255" text-anchor="middle">12</text>
  <text class="lbl" x="580" y="255" text-anchor="middle">2</text>
  <text class="lbl" x="592" y="255" text-anchor="middle">3</text>
  <text class="lbl" x="604" y="255" text-anchor="middle">4</text>
  <text class="lbl" x="628" y="255" text-anchor="middle">6</text>
  <text class="lbl" x="652" y="255" text-anchor="middle">8</text>
  <text class="lbl" x="700" y="255" text-anchor="middle">12</text>

  <text class="lbl" x="140" y="278" text-anchor="middle">substrate rounds</text>
  <text class="lbl" x="390" y="278" text-anchor="middle">substrate rounds</text>
  <text class="lbl" x="640" y="278" text-anchor="middle">substrate rounds</text>

  <text class="lbl" x="35" y="145" text-anchor="middle" transform="rotate(-90 35 145)">avg HD (bits)</text>

  <path d="M 80 209.9 L 92 161.2 L 104 161.3 L 128 70.8 L 152 71.4 L 200 70.9" fill="none" stroke="#0F6E56" stroke-width="1.5"/>
  <path d="M 80 209.9 L 92 161.2 L 104 161.1 L 128 70.8 L 152 70.8 L 200 70.9" fill="none" stroke="#1E5E9F" stroke-width="1.5" stroke-dasharray="5 3"/>
  <path d="M 80 209.7 L 92 161.1 L 104 161.3 L 128 71.1 L 152 71.2 L 200 70.9" fill="none" stroke="#993C1D" stroke-width="1.5" stroke-dasharray="2 3"/>
  <path d="M 80 210.0 L 92 161.2 L 104 161.3 L 128 71.3 L 152 71.4 L 200 71.2" fill="none" stroke="#666666" stroke-width="1.5" stroke-dasharray="1 4"/>

  <path d="M 330 71.4 L 342 70.9 L 354 71.2 L 378 70.7 L 402 71.6 L 450 71.1" fill="none" stroke="#0F6E56" stroke-width="1.5"/>
  <path d="M 330 71.1 L 342 71.3 L 354 71.3 L 378 70.9 L 402 71.2 L 450 71.3" fill="none" stroke="#1E5E9F" stroke-width="1.5" stroke-dasharray="5 3"/>
  <path d="M 330 71.1 L 342 71.3 L 354 71.2 L 378 71.3 L 402 71.2 L 450 71.1" fill="none" stroke="#993C1D" stroke-width="1.5" stroke-dasharray="2 3"/>
  <path d="M 330 71.4 L 342 71.1 L 354 70.6 L 378 70.9 L 402 71.4 L 450 71.3" fill="none" stroke="#666666" stroke-width="1.5" stroke-dasharray="1 4"/>

  <path d="M 580 71.1 L 592 71.4 L 604 71.2 L 628 71.0 L 652 71.4 L 700 71.3" fill="none" stroke="#0F6E56" stroke-width="1.5"/>
  <path d="M 580 71.1 L 592 71.1 L 604 70.8 L 628 70.7 L 652 71.2 L 700 70.9" fill="none" stroke="#1E5E9F" stroke-width="1.5" stroke-dasharray="5 3"/>
  <path d="M 580 71.1 L 592 71.1 L 604 71.2 L 628 71.2 L 652 71.1 L 700 71.3" fill="none" stroke="#993C1D" stroke-width="1.5" stroke-dasharray="2 3"/>
  <path d="M 580 71.0 L 592 71.3 L 604 70.9 L 628 71.0 L 652 70.9 L 700 70.9" fill="none" stroke="#666666" stroke-width="1.5" stroke-dasharray="1 4"/>

  <g transform="translate(80, 300)" class="lbl">
    <line x1="0" y1="0" x2="20" y2="0" stroke="#0F6E56" stroke-width="1.5"/>
    <text x="26" y="4">BASE</text>
    <line x1="120" y1="0" x2="140" y2="0" stroke="#1E5E9F" stroke-width="1.5" stroke-dasharray="5 3"/>
    <text x="146" y="4">SAFE</text>
    <line x1="240" y1="0" x2="260" y2="0" stroke="#993C1D" stroke-width="1.5" stroke-dasharray="2 3"/>
    <text x="266" y="4">AGGR</text>
    <line x1="360" y1="0" x2="380" y2="0" stroke="#666666" stroke-width="1.5" stroke-dasharray="1 4"/>
    <text x="386" y="4">NULL</text>
    <line x1="490" y1="0" x2="510" y2="0" stroke="#aaa" stroke-width="0.5" stroke-dasharray="3 3"/>
    <text x="516" y="4">ideal HD = 160</text>
  </g>
</svg>
